<svg width="14" height="14" viewBox="0 0 14 14" fill="none" xmlns="http://www.w3.org/2000/svg">
<g clip-path="url(#clip0_515_467)">
<path d="M12.7575 6.70822C12.3841 6.06072 10.3308 2.81155 6.84246 2.91655C3.61662 2.99822 1.74996 5.83322 1.24246 6.70822C1.19126 6.7969 1.16431 6.89749 1.16431 6.99988C1.16431 7.10228 1.19126 7.20287 1.24246 7.29155C1.60996 7.92738 3.57579 11.0832 7.01163 11.0832H7.15746C10.3833 11.0016 12.2558 8.16655 12.7575 7.29155C12.8087 7.20287 12.8356 7.10228 12.8356 6.99988C12.8356 6.89749 12.8087 6.7969 12.7575 6.70822ZM7.12829 9.91655C4.61413 9.97488 2.97496 7.82238 2.46162 6.99988C3.04496 6.06072 4.56746 4.14155 6.90079 4.08322C9.40329 4.01905 11.0483 6.17738 11.5675 6.99988C10.9666 7.93905 9.46163 9.85822 7.12829 9.91655Z" fill="#363636"/>
<path d="M6.99992 4.95898C6.59612 4.95898 6.20138 5.07873 5.86563 5.30307C5.52988 5.52741 5.26819 5.84627 5.11367 6.21934C4.95914 6.5924 4.9187 7.00292 4.99748 7.39896C5.07626 7.79501 5.27071 8.15879 5.55624 8.44433C5.84178 8.72986 6.20557 8.92431 6.60161 9.00309C6.99765 9.08187 7.40817 9.04143 7.78123 8.88691C8.1543 8.73238 8.47316 8.47069 8.6975 8.13494C8.92184 7.79919 9.04159 7.40445 9.04159 7.00065C9.04159 6.45917 8.82648 5.93986 8.4436 5.55697C8.06071 5.17409 7.5414 4.95898 6.99992 4.95898ZM6.99992 7.87565C6.82686 7.87565 6.65769 7.82433 6.5138 7.72819C6.3699 7.63204 6.25775 7.49538 6.19152 7.3355C6.1253 7.17561 6.10797 6.99968 6.14173 6.82995C6.17549 6.66021 6.25883 6.5043 6.3812 6.38193C6.50357 6.25956 6.65948 6.17623 6.82922 6.14246C6.99895 6.1087 7.17488 6.12603 7.33477 6.19226C7.49465 6.25848 7.63131 6.37063 7.72746 6.51453C7.8236 6.65842 7.87492 6.82759 7.87492 7.00065C7.87492 7.23272 7.78273 7.45528 7.61864 7.61937C7.45454 7.78346 7.23198 7.87565 6.99992 7.87565Z" fill="#363636"/>
</g>
<defs>
<clipPath id="clip0_515_467">
<rect width="14" height="14" fill="white"/>
</clipPath>
</defs>
</svg>
