<svg width="24" height="24" viewBox="0 0 24 24" fill="none" xmlns="http://www.w3.org/2000/svg">
<path d="M16.9153 17.5216C15.5008 18.5803 13.7784 19.1668 12 19.1953C6.2076 19.1953 2.89764 12.6953 2.89764 12.6953C3.92695 10.8119 5.35457 9.16632 7.08473 7.86908M10.2623 6.39033C10.8319 6.25942 11.415 6.19398 12 6.19533C17.7924 6.19533 21.1024 12.6953 21.1024 12.6953C20.6001 13.618 20.001 14.4867 19.315 15.2872M13.7543 14.4178C13.527 14.6573 13.253 14.8494 12.9484 14.9826C12.6439 15.1158 12.3152 15.1875 11.9819 15.1932C11.6486 15.199 11.3175 15.1388 11.0084 15.0162C10.6992 14.8936 10.4185 14.7112 10.1827 14.4797C9.94699 14.2482 9.76116 13.9725 9.6363 13.669C9.51145 13.3655 9.45013 13.0404 9.45601 12.7131C9.46189 12.3858 9.53485 12.0631 9.67053 11.7641C9.80621 11.4651 10.0018 11.196 10.2457 10.9728" stroke="#363636" stroke-width="2" stroke-linecap="round" stroke-linejoin="round"/>
<path d="M3.9303 4.5L19.7839 19.5" stroke="#363636" stroke-width="2" stroke-linecap="round" stroke-linejoin="round"/>
</svg>
